<svg width="12" height="12" viewBox="0 0 12 12" fill="none" xmlns="http://www.w3.org/2000/svg">
<path d="M11.3613 10.1836C11.6777 10.5352 11.6777 11.0625 11.3613 11.3789C11.0098 11.7305 10.4824 11.7305 10.166 11.3789L6.01758 7.19531L1.83398 11.3789C1.48242 11.7305 0.955078 11.7305 0.638672 11.3789C0.287109 11.0625 0.287109 10.5352 0.638672 10.1836L4.82227 6L0.638672 1.81641C0.287109 1.46484 0.287109 0.9375 0.638672 0.621094C0.955078 0.269531 1.48242 0.269531 1.79883 0.621094L6.01758 4.83984L10.2012 0.65625C10.5176 0.304688 11.0449 0.304688 11.3613 0.65625C11.7129 0.972656 11.7129 1.5 11.3613 1.85156L7.17773 6L11.3613 10.1836Z" fill="#080F36" fill-opacity="0.5"/>
</svg>
