<svg width="18" height="18" viewBox="0 0 18 18" fill="none" xmlns="http://www.w3.org/2000/svg">
<path d="M9 0C4.00781 0 0 4.04297 0 9C0 13.9922 4.00781 18 9 18C13.957 18 18 13.9922 18 9C18 4.04297 13.957 0 9 0ZM9 16.3125C4.95703 16.3125 1.6875 13.043 1.6875 9C1.6875 4.99219 4.95703 1.6875 9 1.6875C13.0078 1.6875 16.3125 4.99219 16.3125 9C16.3125 13.043 13.0078 16.3125 9 16.3125ZM9 10.6875C9.45703 10.6875 9.84375 10.3359 9.84375 9.84375V5.34375C9.84375 4.88672 9.45703 4.5 9 4.5C8.50781 4.5 8.15625 4.88672 8.15625 5.34375V9.84375C8.15625 10.3359 8.50781 10.6875 9 10.6875ZM9 11.8828C8.36719 11.8828 7.875 12.375 7.875 12.9727C7.875 13.5703 8.36719 14.0625 9 14.0625C9.59766 14.0625 10.0898 13.5703 10.0898 12.9727C10.0898 12.375 9.59766 11.8828 9 11.8828Z" fill="#B42318"/>
</svg>
